<svg width="29" height="45" viewBox="0 0 29 45" fill="none" xmlns="http://www.w3.org/2000/svg">
<path d="M4.14286 45C3.00357 45 2.02862 44.5998 1.218 43.7993C0.407381 42.9989 0.00138095 42.0354 0 40.9091V4.09091C0 2.96591 0.406 2.00318 1.218 1.20273C2.03 0.402273 3.00495 0.00136364 4.14286 0H24.8571C25.9964 0 26.9721 0.400909 27.7841 1.20273C28.5961 2.00455 29.0014 2.96727 29 4.09091V40.9091C29 42.0341 28.5947 42.9975 27.7841 43.7993C26.9734 44.6011 25.9978 45.0014 24.8571 45H4.14286ZM14.5 39.8864C15.0869 39.8864 15.5792 39.69 15.9769 39.2973C16.3746 38.9045 16.5728 38.4191 16.5714 37.8409C16.5714 37.2614 16.3726 36.7759 15.9749 36.3845C15.5771 35.9932 15.0855 35.7968 14.5 35.7954C13.9131 35.7954 13.4215 35.9918 13.0251 36.3845C12.6288 36.7773 12.43 37.2627 12.4286 37.8409C12.4286 38.4204 12.6274 38.9066 13.0251 39.2993C13.4229 39.692 13.9145 39.8877 14.5 39.8864ZM4.14286 30.6818H24.8571V10.2273H4.14286V30.6818Z" fill="#DA8649"/>
</svg>
