<svg width="40" height="30" viewBox="0 0 40 30" fill="none" xmlns="http://www.w3.org/2000/svg">
<path d="M37.5 0H2.5C1.83696 0 1.20107 0.263392 0.732233 0.732233C0.263392 1.20107 0 1.83696 0 2.5V27.5C0 28.163 0.263392 28.7989 0.732233 29.2678C1.20107 29.7366 1.83696 30 2.5 30H37.5C38.163 30 38.7989 29.7366 39.2678 29.2678C39.7366 28.7989 40 28.163 40 27.5V2.5C40 1.83696 39.7366 1.20107 39.2678 0.732233C38.7989 0.263392 38.163 0 37.5 0ZM35.575 27.5H4.575L13.325 18.45L11.525 16.7125L2.5 26.05V4.4L18.0375 19.8625C18.5059 20.3281 19.1395 20.5895 19.8 20.5895C20.4605 20.5895 21.0941 20.3281 21.5625 19.8625L37.5 4.0125V25.8875L28.3 16.6875L26.5375 18.45L35.575 27.5ZM4.1375 2.5H35.475L19.8 18.0875L4.1375 2.5Z" fill="#DA8649"/>
</svg>
