<svg width="45" height="45" viewBox="0 0 45 45" fill="none" xmlns="http://www.w3.org/2000/svg">
<g clip-path="url(#clip0_26_340)">
<path d="M22.5 0C9.82512 0 0 9.28441 0 21.825C0 28.3846 2.68822 34.0527 7.06641 37.9679C7.43379 38.2968 7.65562 38.7577 7.67074 39.2507L7.79326 43.2533C7.83246 44.5298 9.151 45.3605 10.3192 44.8448L14.7851 42.873C15.1636 42.7062 15.5882 42.6751 15.987 42.785C18.0392 43.3492 20.2233 43.6498 22.5 43.6498C35.1749 43.6498 45 34.3654 45 21.8248C45 9.28424 35.1749 0 22.5 0Z" fill="#DA8649"/>
<path d="M8.98894 28.2076L15.5983 17.7217C16.6495 16.0536 18.9009 15.6382 20.4784 16.8212L25.7351 20.764C25.9699 20.94 26.2556 21.0348 26.5491 21.034C26.8425 21.0331 27.1277 20.9367 27.3614 20.7592L34.4609 15.3712C35.4083 14.6521 36.6455 15.786 36.0113 16.7924L29.4019 27.2784C28.3505 28.9464 26.099 29.3618 24.5217 28.1788L19.2648 24.236C19.03 24.06 18.7444 23.9653 18.451 23.9661C18.1576 23.967 17.8725 24.0634 17.6388 24.2407L10.539 29.6288C9.59152 30.3477 8.35455 29.2139 8.98894 28.2076Z" fill="black"/>
</g>
<defs>
<clipPath id="clip0_26_340">
<rect width="45" height="45" fill="white"/>
</clipPath>
</defs>
</svg>
