<svg width="45" height="45" viewBox="0 0 45 45" fill="none" xmlns="http://www.w3.org/2000/svg">
<path d="M44.9745 35.5133C44.8672 34.8497 44.4512 34.2825 43.8283 33.9455L34.6129 28.5144L34.5371 28.472C34.1507 28.2785 33.7239 28.1793 33.2919 28.1826C32.5198 28.1826 31.7824 28.4752 31.2707 28.9883L28.5508 31.7103C28.4344 31.8209 28.0551 31.981 27.94 31.9868C27.9085 31.9843 24.7753 31.7586 19.0069 25.9879C13.2488 20.2295 13.0045 17.0856 13.0026 17.0856C13.0058 16.9249 13.1639 16.5468 13.2764 16.4297L15.5959 14.1103C16.4129 13.291 16.6579 11.9329 16.1732 10.8809L11.0509 1.23978C10.6786 0.473278 9.95542 0 9.15314 0C8.58549 0 8.03777 0.235353 7.60963 0.662976L1.28711 6.97315C0.680895 7.57632 0.158893 8.63091 0.0451071 9.47972C-0.0101788 9.88548 -1.13197 19.571 12.1431 32.8517C23.413 44.1236 32.2009 44.9994 34.6277 44.9994C34.9232 45.0032 35.2187 44.988 35.5123 44.9538C36.3583 44.8406 37.4113 44.3197 38.0137 43.7159L44.331 37.3974C44.8466 36.8791 45.0819 36.1943 44.9745 35.5133Z" fill="#DA8649"/>
</svg>
